<svg width="100" height="38" viewBox="0 0 100 38" fill="none" xmlns="http://www.w3.org/2000/svg">
<mask id="mask0_3721_66445" style="mask-type:alpha" maskUnits="userSpaceOnUse" x="0" y="0" width="100" height="38">
<path d="M69.2259 20.5802C67.7973 22.0001 66.0116 22.71 63.8688 22.71C61.726 22.71 59.9273 22.0001 58.4727 20.5802C57.0442 19.1602 56.3299 17.4112 56.3299 15.333C56.3299 13.2547 57.0507 11.4992 58.4922 10.0664C59.9338 8.63358 61.7195 7.91717 63.8493 7.91717C65.9921 7.91717 67.7843 8.63358 69.2259 10.0664C70.6674 11.4992 71.3882 13.2547 71.3882 15.333C71.3882 17.3983 70.6674 19.1473 69.2259 20.5802ZM63.8493 19.128C64.9142 19.128 65.8103 18.7665 66.5376 18.0437C67.2649 17.3208 67.6285 16.4108 67.6285 15.3136C67.6025 14.2035 67.2259 13.2935 66.4986 12.5835C65.7714 11.8606 64.8883 11.4992 63.8493 11.4992C62.7974 11.4992 61.9078 11.8671 61.1805 12.6029C60.4532 13.3257 60.0896 14.2293 60.0896 15.3136C60.0896 16.4108 60.4532 17.3208 61.1805 18.0437C61.9078 18.7665 62.7974 19.128 63.8493 19.128Z" fill="#07101B"/>
<path d="M85.6624 20.5802C84.2339 22.0001 82.4482 22.71 80.3054 22.71C78.1625 22.71 76.3638 22.0001 74.9093 20.5802C73.4807 19.1602 72.7665 17.4112 72.7665 15.333C72.7665 13.2547 73.4872 11.4992 74.9288 10.0664C76.3703 8.63358 78.156 7.91717 80.2859 7.91717C82.4287 7.91717 84.2209 8.63358 85.6624 10.0664C87.104 11.4992 87.8248 13.2547 87.8248 15.333C87.8248 17.3983 87.104 19.1473 85.6624 20.5802ZM80.2859 19.128C81.3508 19.128 82.2469 18.7665 82.9742 18.0437C83.7014 17.3208 84.0651 16.4108 84.0651 15.3136C84.0391 14.2035 83.6625 13.2935 82.9352 12.5835C82.2079 11.8606 81.3248 11.4992 80.2859 11.4992C79.2339 11.4992 78.3443 11.8671 77.6171 12.6029C76.8898 13.3257 76.5262 14.2293 76.5262 15.3136C76.5262 16.4108 76.8898 17.3208 77.6171 18.0437C78.3443 18.7665 79.2339 19.128 80.2859 19.128Z" fill="#07101B"/>
<path d="M92.3442 22.468V11.6444H88.3508V8.15922H100V11.6444H96.026V22.468H92.3442Z" fill="#07101B"/>
<path d="M55.3729 22.468H51.2041L48.6717 17.7242H47.2496V22.468H43.6068V8.15922H49.6068C51.334 8.15922 52.6457 8.61101 53.5418 9.51459C54.4379 10.4053 54.8859 11.5347 54.8859 12.903C54.8859 13.8324 54.6587 14.6779 54.2041 15.4395C53.7626 16.1882 53.1132 16.7626 52.2561 17.1627L55.3729 22.468ZM49.5678 11.4702H47.2496V14.5682H49.4314C50.1587 14.6069 50.6652 14.3552 50.9509 13.813C51.2366 13.2709 51.2366 12.7352 50.9509 12.206C50.6652 11.6638 50.2042 11.4186 49.5678 11.4702Z" fill="#07101B"/>
<path d="M0 4.3613V26.7936H14.6394V38L36.5197 25.5615V4.3613L18.2598 0L0 4.3613ZM30.6167 22.139L20.5423 27.8693V20.9068H5.90297V8.97684L18.2598 6.02367L30.6167 8.97684V22.139Z" fill="#07101B"/>
<path d="M17.1383 16.6433L8.06739 16.3303V10.9716L17.1383 14.0226V16.6433Z" fill="#07101B"/>
<path d="M19.3814 16.6433L28.4326 16.3303V10.9716L19.3814 14.0226V16.6433Z" fill="#07101B"/>
</mask>
<g mask="url(#mask0_3721_66445)">
<rect x="-33.7549" y="-32.1235" width="167.509" height="103.031" fill="white"/>
</g>
</svg>
